<?xml version="1.0" standalone="no"?>
<!DOCTYPE svg PUBLIC "-//W3C//DTD SVG 20010904//EN"
 "http://www.w3.org/TR/2001/REC-SVG-20010904/DTD/svg10.dtd">
<svg version="1.0" xmlns="http://www.w3.org/2000/svg"
 width="270.000000pt" height="261.000000pt" viewBox="0 0 270.000000 261.000000"
 preserveAspectRatio="xMidYMid meet">

<g transform="translate(0.000000,261.000000) scale(0.100000,-0.100000)"
fill="#000000" stroke="none">
<path d="M1400 2549 c-113 -7 -158 -16 -290 -56 -407 -122 -733 -469 -811
-863 -7 -36 -13 -130 -13 -210 1 -160 19 -256 75 -391 104 -255 332 -485 579
-585 234 -95 519 -115 762 -54 170 43 400 176 535 308 90 89 193 226 249 335
48 94 105 288 103 356 -1 27 -5 16 -18 -44 -39 -180 -103 -330 -199 -465 -66
-92 -207 -229 -299 -290 -216 -143 -419 -205 -668 -205 -314 1 -563 99 -782
308 -211 202 -314 446 -314 744 1 275 107 525 313 734 229 232 540 359 879
359 318 0 576 -100 787 -304 156 -150 249 -327 288 -544 l14 -77 -5 75 c-6
102 -27 178 -79 285 -118 247 -337 437 -601 523 -182 60 -300 74 -505 61z"/>
<path d="M1173 2420 c31 -10 57 -28 57 -41 0 -5 -20 0 -45 11 -27 12 -47 15
-50 9 -4 -5 8 -14 25 -20 27 -10 29 -13 14 -24 -16 -11 -15 -12 2 -19 11 -4
20 -3 22 3 2 6 14 11 27 11 13 0 25 5 27 10 2 6 26 12 53 13 28 1 56 8 63 15
16 15 19 14 -52 1 -54 -10 -58 -9 -87 15 -17 15 -42 26 -57 25 l-27 -1 28 -8z"/>
<path d="M1870 2415 c0 -2 14 -11 30 -20 17 -9 30 -11 30 -6 0 6 -9 15 -19 21
-21 11 -41 13 -41 5z"/>
<path d="M1460 2400 c8 -5 44 -10 80 -10 79 -1 134 -12 155 -34 20 -20 26 -20
19 -1 -12 29 49 10 91 -29 26 -25 27 -26 6 -26 -27 0 -27 -21 -1 -51 l21 -24
-6 33 c-5 24 -3 32 8 32 8 0 18 7 21 16 7 19 -10 44 -31 44 -7 0 -24 7 -38 16
-13 8 -59 22 -102 29 -92 17 -246 20 -223 5z"/>
<path d="M1850 2391 c0 -5 6 -14 14 -21 8 -6 12 -18 10 -25 -4 -8 7 -20 26
-30 37 -19 55 -10 23 12 -13 9 -23 21 -23 28 0 12 -31 45 -43 45 -4 0 -7 -4
-7 -9z"/>
<path d="M1487 2357 l-27 -23 30 -29 c35 -33 54 -26 22 8 -28 30 -28 37 4 37
15 0 24 5 22 12 -7 20 -22 18 -51 -5z"/>
<path d="M1574 2356 c-9 -23 5 -39 22 -25 7 6 21 8 30 5 11 -4 14 -1 12 12 -4
22 -56 29 -64 8z"/>
<path d="M1300 2331 c-6 -12 -5 -22 2 -29 17 -17 28 -15 28 4 0 14 3 14 15 4
19 -16 32 -5 16 14 -19 23 -50 26 -61 7z"/>
<path d="M978 2333 c7 -3 16 -2 19 1 4 3 -2 6 -13 5 -11 0 -14 -3 -6 -6z"/>
<path d="M1106 2331 c-3 -4 14 -16 37 -26 23 -9 36 -19 30 -22 -7 -2 -13 -13
-13 -23 0 -14 9 -19 40 -22 22 -2 40 -3 40 -2 0 0 -23 24 -50 52 -48 50 -73
62 -84 43z"/>
<path d="M1676 2305 c-5 -13 27 -45 46 -45 15 0 8 27 -10 43 -23 21 -28 21
-36 2z"/>
<path d="M1035 2301 c-3 -6 3 -15 12 -21 16 -10 16 -11 -2 -5 -23 7 -25 8 -42
6 -18 -2 -16 -21 2 -21 8 0 15 -8 15 -19 0 -25 26 -45 47 -36 16 6 15 8 -6 24
l-24 18 28 7 c19 5 31 3 36 -6 15 -22 10 2 -6 32 -15 29 -48 40 -60 21z"/>
<path d="M1570 2292 c0 -11 16 -32 38 -48 l37 -29 -17 27 c-10 15 -15 34 -12
42 3 9 2 16 -4 16 -6 0 -17 3 -26 6 -11 4 -16 0 -16 -14z"/>
<path d="M934 2272 c7 -22 86 -108 86 -94 0 5 -6 15 -14 21 -8 6 -19 24 -25
39 -6 15 -21 33 -32 40 -19 12 -20 11 -15 -6z"/>
<path d="M2010 2266 c0 -8 16 -23 35 -32 20 -9 44 -27 54 -40 10 -13 23 -24
27 -24 13 0 104 -80 104 -90 0 -5 -13 -4 -30 1 -39 14 -53 8 -56 -22 -1 -13 0
-18 2 -11 4 7 25 12 54 12 47 0 50 -2 75 -44 28 -48 65 -86 65 -67 0 38 -130
192 -218 258 -87 66 -112 79 -112 59z"/>
<path d="M900 2220 c0 -5 7 -10 15 -10 8 0 15 -7 15 -15 0 -18 -21 -20 -37 -4
-12 12 -53 3 -53 -12 0 -5 14 -9 30 -9 18 0 33 -6 36 -15 4 -8 10 -15 15 -15
5 0 9 7 9 15 0 22 13 18 40 -10 42 -44 34 -18 -10 34 -42 49 -60 62 -60 41z"/>
<path d="M2015 2210 c-4 -6 -15 -10 -26 -10 -10 0 -19 -4 -19 -9 0 -4 18 -8
40 -8 25 0 40 4 40 12 0 16 -27 27 -35 15z"/>
<path d="M1680 2200 c0 -5 9 -14 20 -20 22 -12 27 -1 8 18 -14 14 -28 16 -28
2z"/>
<path d="M800 2140 c0 -5 6 -10 13 -10 13 0 57 -40 57 -53 0 -3 -21 4 -47 17
-44 23 -73 25 -73 5 0 -5 14 -9 30 -9 23 0 33 -6 40 -25 10 -26 35 -34 42 -14
2 7 13 9 26 5 17 -6 21 -12 16 -32 -4 -14 -2 -24 5 -24 6 0 11 5 11 10 0 6 10
10 23 10 20 1 20 2 4 11 -9 6 -43 35 -74 65 -56 53 -73 64 -73 44z"/>
<path d="M1370 2130 c-75 -14 -190 -58 -260 -99 -264 -158 -401 -460 -335
-739 75 -315 401 -535 734 -493 250 32 468 182 580 401 64 125 86 221 78 349
-20 344 -305 595 -669 590 -46 -1 -103 -5 -128 -9z m-261 -720 c11 -6 26 -35
36 -75 21 -77 34 -91 37 -38 0 21 2 43 3 48 2 6 3 22 4 38 1 24 5 27 34 27 39
0 57 -15 57 -46 0 -39 17 -35 29 7 12 39 14 40 44 34 45 -10 57 -22 48 -48 -5
-12 -9 -44 -9 -70 -1 -26 -4 -52 -7 -57 -3 -5 -33 -6 -68 -4 -34 2 -92 5 -130
5 -56 0 -70 3 -80 20 -14 23 -55 25 -63 4 -7 -18 -63 -20 -69 -2 -5 11 5 33
58 135 18 33 42 41 76 22z m441 -23 c20 -10 25 -21 26 -52 1 -61 3 -68 17 -62
7 3 24 -1 38 -9 28 -16 69 -18 69 -4 0 5 -17 14 -38 20 -22 5 -47 19 -58 31
-17 19 -17 23 -3 47 12 23 22 27 67 30 44 3 56 -1 76 -21 l25 -25 14 22 c21
31 96 30 131 -3 14 -14 26 -28 26 -33 0 -12 -48 -10 -55 2 -7 12 -55 14 -55 2
0 -4 23 -18 50 -29 44 -19 50 -25 50 -51 0 -16 -7 -35 -15 -42 -20 -17 -102
-15 -130 4 -21 14 -27 14 -52 1 -39 -21 -86 -19 -116 5 -30 24 -41 25 -57 5
-14 -17 -94 -20 -134 -5 -24 9 -25 13 -20 62 12 124 9 118 67 118 29 0 63 -6
77 -13z m-292 -230 c6 -7 9 -22 7 -32 -2 -11 -4 -35 -4 -52 -1 -28 -5 -33 -25
-33 -31 0 -48 22 -41 53 5 20 2 27 -14 32 -26 8 -27 25 -2 25 11 0 23 5 26 10
9 14 41 12 53 -3z m163 -11 c16 -8 32 -10 40 -5 22 14 93 10 116 -6 18 -13 22
-13 33 0 25 30 130 9 130 -26 0 -10 -5 -19 -12 -19 -9 0 -9 -3 0 -12 17 -17
15 -45 -4 -52 -29 -11 -89 -6 -111 9 -18 13 -24 13 -50 0 -31 -15 -63 -13
-101 7 -18 9 -27 9 -42 0 -25 -15 -62 -15 -95 0 -26 12 -29 36 -4 29 49 -14
60 -9 22 8 -44 21 -55 45 -31 69 16 16 77 15 109 -2z"/>
<path d="M1472 1348 c5 -15 48 -24 48 -10 0 10 -23 22 -42 22 -5 0 -8 -6 -6
-12z"/>
<path d="M1662 1338 c2 -6 17 -16 34 -21 16 -5 36 -16 45 -24 25 -21 91 -53
111 -53 32 0 19 28 -16 34 -18 4 -41 15 -51 26 -10 11 -26 20 -35 20 -9 0 -25
7 -36 15 -23 17 -57 20 -52 3z"/>
<path d="M1467 1284 c-15 -15 -6 -24 24 -24 20 0 29 4 27 13 -5 14 -40 21 -51
11z"/>
<path d="M1360 1114 c0 -17 22 -14 28 4 2 7 -3 12 -12 12 -9 0 -16 -7 -16 -16z"/>
<path d="M1510 1110 c0 -5 7 -10 15 -10 8 0 15 5 15 10 0 6 -7 10 -15 10 -8 0
-15 -4 -15 -10z"/>
<path d="M1450 1079 c0 -4 14 -12 31 -18 38 -13 39 -13 39 -3 0 4 -16 12 -35
18 -19 6 -35 8 -35 3z"/>
<path d="M1650 1060 c0 -5 7 -10 15 -10 8 0 15 5 15 10 0 6 -7 10 -15 10 -8 0
-15 -4 -15 -10z"/>
<path d="M2062 2127 c-9 -11 -8 -18 8 -32 23 -21 27 -19 32 15 4 28 -22 39
-40 17z"/>
<path d="M900 2120 c19 -13 30 -13 30 0 0 6 -10 10 -22 10 -19 0 -20 -2 -8
-10z"/>
<path d="M2150 2019 c0 -5 5 -7 10 -4 6 3 10 8 10 11 0 2 -4 4 -10 4 -5 0 -10
-5 -10 -11z"/>
<path d="M670 2005 c0 -8 6 -15 14 -15 7 0 34 -11 60 -25 65 -34 69 -31 10 7
-27 18 -50 36 -52 40 -6 14 -32 8 -32 -7z"/>
<path d="M645 1970 c-9 -14 29 -56 56 -63 22 -6 39 20 22 32 -5 3 -13 15 -17
26 -6 14 -10 16 -13 7 -3 -8 0 -19 6 -25 6 -6 11 -16 11 -21 0 -6 -13 4 -29
23 -19 22 -31 29 -36 21z"/>
<path d="M2230 1960 c0 -5 17 -10 38 -10 27 0 33 3 22 10 -20 13 -60 13 -60 0z"/>
<path d="M605 1912 c-10 -10 -5 -18 24 -35 23 -14 31 -14 39 -4 9 10 3 17 -23
29 -19 8 -37 13 -40 10z"/>
<path d="M2190 1910 c0 -5 14 -10 31 -10 17 0 28 4 24 10 -3 6 -17 10 -31 10
-13 0 -24 -4 -24 -10z"/>
<path d="M574 1868 c-3 -5 1 -17 10 -27 9 -10 16 -25 16 -34 0 -10 8 -17 20
-17 24 0 25 6 5 26 -8 9 -15 19 -15 24 0 11 58 -8 66 -21 3 -5 15 -9 27 -9 17
1 14 5 -18 23 -60 32 -104 46 -111 35z"/>
<path d="M2366 1851 c-3 -5 1 -14 9 -21 23 -19 20 -43 -4 -30 -40 21 -70 29
-76 20 -7 -12 31 -32 75 -40 29 -5 35 -10 33 -28 -2 -12 2 -22 7 -22 6 0 8
-10 5 -23 -4 -15 -1 -28 10 -37 15 -12 16 -9 9 38 -3 29 -4 52 0 52 4 0 20 -7
36 -15 17 -9 30 -11 30 -6 0 14 -23 29 -50 33 -18 2 -30 14 -44 46 -19 42 -30
50 -40 33z"/>
<path d="M660 1801 c0 -9 30 -24 36 -18 2 1 -6 8 -16 15 -11 7 -20 8 -20 3z"/>
<path d="M522 1781 c-8 -5 23 -18 75 -34 95 -29 128 -30 41 -2 -29 10 -65 24
-79 31 -14 7 -31 9 -37 5z"/>
<path d="M512 1729 c5 -15 32 -23 103 -32 48 -6 47 -5 -16 12 -36 10 -72 22
-79 26 -8 5 -11 3 -8 -6z"/>
<path d="M490 1668 c0 -10 5 -18 10 -18 6 0 10 5 10 10 0 16 50 12 56 -5 7
-16 34 -21 34 -6 0 18 -35 36 -72 37 -30 0 -38 -3 -38 -18z"/>
<path d="M2326 1653 c9 -38 11 -39 33 -12 23 28 19 39 -15 39 -22 0 -24 -3
-18 -27z"/>
<path d="M2426 1626 c24 -18 17 -24 -37 -35 l-44 -9 42 -1 c23 -1 49 -4 57 -7
12 -5 15 -2 10 10 -8 21 14 21 44 0 19 -13 22 -13 22 0 0 8 -16 20 -35 26 -19
6 -35 16 -35 21 0 5 -10 9 -22 9 -21 0 -21 0 -2 -14z"/>
<path d="M476 1611 c6 -7 38 -14 70 -16 50 -4 53 -3 19 4 -22 4 -53 12 -70 16
-23 6 -27 5 -19 -4z"/>
<path d="M2593 1525 c0 -44 2 -61 4 -37 2 23 2 59 0 80 -2 20 -4 1 -4 -43z"/>
<path d="M520 1555 c0 -21 28 -31 43 -16 9 9 8 14 -3 21 -22 14 -40 12 -40 -5z"/>
<path d="M456 1505 c-4 -13 8 -15 82 -13 l87 1 -70 6 c-38 3 -75 9 -81 13 -7
5 -14 1 -18 -7z"/>
<path d="M2372 1502 c2 -9 18 -19 36 -23 27 -5 32 -4 30 9 -2 9 -18 19 -36 23
-27 5 -32 4 -30 -9z"/>
<path d="M2317 1493 c-9 -15 9 -35 28 -31 16 3 15 5 -3 21 -11 10 -22 14 -25
10z"/>
<path d="M460 1448 c0 -5 6 -8 13 -8 8 0 36 -11 63 -25 27 -14 49 -25 50 -25
1 0 1 13 0 29 -1 29 -2 30 -64 33 -34 2 -62 0 -62 -4z"/>
<path d="M460 1404 c0 -19 5 -24 24 -24 37 0 40 17 6 33 -29 15 -30 15 -30 -9z"/>
<path d="M2281 1366 c2 -3 45 -10 94 -17 50 -6 98 -19 108 -27 15 -14 17 -13
17 2 0 9 -10 20 -22 25 -25 9 -205 24 -197 17z"/>
<path d="M460 1350 c0 -5 5 -10 11 -10 5 0 7 5 4 10 -3 6 -8 10 -11 10 -2 0
-4 -4 -4 -10z"/>
<path d="M2320 1308 c0 -7 12 -22 28 -35 24 -20 25 -22 7 -22 -11 0 -37 3 -57
8 -22 5 -38 5 -38 0 0 -5 11 -9 23 -9 13 0 45 -6 70 -14 42 -13 47 -12 47 2 0
9 -12 29 -27 45 l-28 28 30 -15 c34 -18 49 -11 21 10 -24 17 -76 19 -76 2z"/>
<path d="M2265 1204 l30 -14 -33 5 c-20 3 -31 1 -27 -5 3 -6 21 -10 39 -10 19
0 39 -7 46 -15 7 -8 20 -15 28 -15 13 0 12 3 -4 16 -18 15 -18 15 6 10 24 -5
24 -4 6 10 -11 8 -27 12 -37 9 -9 -3 -22 1 -29 10 -7 8 -22 15 -34 15 -18 -1
-16 -3 9 -16z"/>
<path d="M608 1122 c-13 -34 -20 -40 -57 -46 -22 -3 -41 -10 -41 -15 0 -5 16
-18 35 -30 28 -16 35 -27 35 -51 0 -30 21 -42 36 -19 4 8 27 9 67 5 47 -5 57
-3 50 7 -23 28 -24 68 -3 94 28 36 25 43 -19 43 -30 0 -44 6 -59 25 -11 14
-22 25 -24 25 -3 0 -12 -17 -20 -38z"/>
<path d="M2187 1083 c-2 -4 -7 -20 -10 -34 -5 -20 -19 -31 -54 -46 l-47 -19
37 -22 c29 -17 37 -28 37 -50 0 -39 9 -45 36 -23 20 16 31 17 65 10 48 -11 55
-8 40 19 -16 31 -13 61 10 93 l20 29 -37 0 c-27 0 -46 7 -65 26 -15 14 -29 22
-32 17z"/>
<path d="M920 850 c0 -5 13 -10 29 -10 17 0 33 -4 36 -10 3 -5 11 -10 17 -10
6 0 3 9 -7 20 -19 21 -75 28 -75 10z"/>
<path d="M880 833 c0 -4 12 -24 26 -44 17 -24 31 -36 41 -32 8 3 27 -4 42 -15
15 -11 47 -26 69 -33 54 -16 53 -27 0 -31 -47 -3 -61 -24 -33 -51 21 -22 19
-36 -5 -30 -11 3 -20 0 -20 -6 0 -6 16 -11 35 -11 40 0 43 8 15 40 -25 28 -17
42 21 38 17 -1 33 3 38 10 4 7 15 10 25 6 14 -5 15 -9 4 -15 -10 -7 -8 -13 11
-28 18 -14 20 -20 10 -23 -8 -3 -11 -9 -7 -13 4 -4 14 -2 23 5 8 7 26 10 39 8
37 -7 43 22 11 49 -14 13 -34 23 -44 23 -25 0 -231 107 -262 136 -25 24 -39
30 -39 17z m325 -182 c10 -17 -11 -21 -31 -6 -18 14 -18 14 3 15 12 0 24 -4
28 -9z"/>
<path d="M1865 769 c4 -6 -2 -13 -14 -16 -12 -3 -21 -9 -21 -13 0 -5 8 -6 19
-3 12 3 26 -5 40 -23 24 -30 29 -20 6 13 -8 12 -12 28 -9 37 4 11 1 16 -11 16
-9 0 -13 -5 -10 -11z"/>
<path d="M1760 715 c-30 -13 -63 -22 -72 -19 -10 3 -18 1 -18 -4 0 -6 -31 -16
-70 -23 -38 -7 -70 -16 -70 -20 0 -11 29 -19 34 -10 10 15 86 22 108 10 18
-10 20 -9 15 5 -7 17 2 22 62 41 21 6 23 5 18 -14 -4 -16 -1 -21 13 -21 11 0
22 -4 25 -10 3 -5 19 -10 36 -10 22 0 29 5 29 18 0 21 -30 52 -49 52 -8 0 -11
6 -7 15 3 8 4 15 3 15 -1 -1 -27 -12 -57 -25z m86 -40 c18 -14 18 -14 -8 -15
-18 0 -28 5 -28 15 0 19 11 19 36 0z"/>
<path d="M883 703 c-4 -10 -1 -19 6 -21 8 -3 22 -13 33 -24 22 -22 34 -18 23
9 -5 10 -7 26 -6 36 3 23 -47 24 -56 0z"/>
<path d="M1920 660 c6 -11 13 -20 16 -20 2 0 0 9 -6 20 -6 11 -13 20 -16 20
-2 0 0 -9 6 -20z"/>
<path d="M1255 662 c-12 -12 10 -22 50 -22 50 0 68 -15 27 -23 -15 -3 -36 -12
-46 -20 -19 -14 -18 -15 5 -36 13 -12 31 -28 40 -36 20 -19 29 -19 29 -1 0 8
-13 23 -29 32 -34 20 -32 34 6 34 16 0 27 7 30 20 3 11 12 20 19 20 21 0 17
20 -3 21 -10 0 -42 4 -71 8 -29 4 -54 5 -57 3z"/>
<path d="M1735 641 c-10 -17 2 -28 37 -33 18 -3 41 -8 51 -13 9 -4 17 -3 17 2
0 6 -19 18 -42 28 -24 10 -46 20 -50 22 -3 2 -9 -1 -13 -6z"/>
<path d="M1600 612 c0 -5 9 -17 20 -27 20 -18 20 -17 20 8 0 20 -5 27 -20 27
-11 0 -20 -4 -20 -8z"/>
<path d="M1570 553 c1 -24 18 -35 39 -24 11 7 21 17 21 24 0 8 -3 8 -9 -2 -7
-10 -13 -11 -30 -2 -11 7 -21 8 -21 4z"/>
<path d="M1173 513 c-21 -7 -15 -43 6 -43 11 0 27 -3 36 -6 14 -6 14 -3 4 19
-13 28 -27 37 -46 30z"/>
<path d="M1295 510 c4 -6 11 -8 16 -5 14 9 11 15 -7 15 -8 0 -12 -5 -9 -10z"/>
<path d="M1412 488 c6 -18 28 -21 28 -4 0 9 -7 16 -16 16 -9 0 -14 -5 -12 -12z"/>
</g>
</svg>
